# xmcd CD database file
#
# Track frame offsets:
#	150
#	11955
#	21040
#	32027
#	73185
#	89537
#	104557
#	122842
#	139235
#	152040
#	165142
#	179857
#	192567
#	203965
#
# Disc length: 2942 seconds
#
# Revision: 2
# Processed by: cddbd v1.5.2PL0 Copyright (c) Steve Scherf et al.
# Submitted via: CDex 1.51
#
DISCID=ce0b7c0e
DTITLE=Various Artist - Instrumentistas Brasileiros
DYEAR=1900
DGENRE=Jazz
TTITLE0=Espinha de Bacalhau - Paulo Moura
TTITLE1=Samba de Uma Nota So - Raphael Rabello
TTITLE2=Delicado - Dominguinhos
TTITLE3=Noites Cariocas (Ao Vivo) - Jacob Do Bandolim
TTITLE4=Nana - Os Cobras
TTITLE5=Respeita Januario - No Meu Pe de Serra - Rildo Hora
TTITLE6=Vibracoes - Avena De Castro
TTITLE7=Tema do Boneco de Palha (Ao Vivo) - Rosinha de Valenca
TTITLE8=Boato - Lamento Bibop - Joao Roberto Kelly and Luiz Reis
TTITLE9=Tenebroso - Deo Rian
TTITLE10=Homenagem a Velha Guarda (Ao Vivo) - Sivuca
TTITLE11=Aquarela do Brasil - Sebastiao Tapajos
TTITLE12=Agua de Beber - Erlon Chaves
TTITLE13=Consolacao - Trio 3D
EXTD=
EXTT0=
EXTT1=
EXTT2=
EXTT3=
EXTT4=
EXTT5=
EXTT6=
EXTT7=
EXTT8=
EXTT9=
EXTT10=
EXTT11=
EXTT12=
EXTT13=
PLAYORDER=
